<!--?xml version="1.0" standalone="no"?-->
              <svg id="sw-js-blob-svg" viewBox="0 0 100 100" xmlns="http://www.w3.org/2000/svg" version="1.1">
                    <defs> 
                        <linearGradient id="sw-gradient" x1="0" x2="1" y1="1" y2="0">
                            <stop id="stop1" stop-color="rgba(123.533, 55, 248, 1)" offset="0%"></stop>
                            <stop id="stop2" stop-color="rgba(251, 168, 31, 1)" offset="100%"></stop>
                        </linearGradient>
                    </defs>
                <path fill="url(#sw-gradient)" d="M26.5,-29.8C33.4,-25.8,37.3,-16.5,38.8,-7C40.4,2.6,39.4,12.4,34.9,20.2C30.4,28,22.4,33.7,14,35.5C5.6,37.2,-3.2,35,-12.7,32.6C-22.2,30.1,-32.5,27.4,-37.7,20.7C-42.9,13.9,-43,3.2,-40.5,-6.4C-38,-16,-32.8,-24.5,-25.6,-28.5C-18.4,-32.4,-9.2,-31.9,0.3,-32.3C9.8,-32.6,19.6,-33.8,26.5,-29.8Z" width="100%" height="100%" transform="translate(50 50)" stroke-width="0" style="transition: all 0.3s ease 0s;"></path>
              </svg>